<svg width="98" height="108" viewBox="0 0 98 108" fill="none" xmlns="http://www.w3.org/2000/svg">
<path d="M88.641 73.5705H88.645C88.6369 73.62 88.6205 73.665 88.6124 73.7145C87.9305 77.094 86.8688 80.37 85.2477 82.8045V82.8315C85.1987 82.9035 85.1375 82.9755 85.0885 83.0475C84.9945 83.1825 84.9129 83.3355 84.8149 83.4615L84.8026 83.439C81.4257 88.209 75.9173 93.555 67.0891 96.471C63.3774 97.6905 57.7138 98.4915 51.4867 98.4915C46.2396 98.4915 40.5883 97.9245 35.3535 96.57C24.3325 93.726 16.3333 84.339 16.3333 74.25C16.3333 57.204 29.8573 51.0435 40.719 46.0935C51.7848 41.049 57.0196 37.9485 57.1666 31.3335C57.2279 28.7055 56.6317 26.721 55.3536 25.272C53.6264 23.319 50.9395 22.6215 49 22.6215C45.0146 22.6215 42.1195 24.948 40.768 26.2935C40.7802 26.532 40.8333 26.757 40.8333 27C40.8333 33.0345 37.2155 38.0835 32.2624 39.8115L16.3905 44.568C16.0434 44.7075 14.4958 45 14.2916 45C10.9106 45 8.16663 41.976 8.16663 38.25C8.16663 37.1205 8.44429 36.072 8.88938 35.136L8.88529 35.127L8.91388 35.082C9.11396 34.668 9.35079 34.281 9.62438 33.9255L18.0401 20.232C18.3178 19.71 19.2202 18.387 19.2202 18.387C21.4701 15.4215 24.8062 13.5 28.5833 13.5C30.5433 13.5 32.3685 14.0535 34.01 14.958C37.5013 11.988 42.6626 9.12149 49 9.12149C54.831 9.12149 60.3394 11.5695 64.1205 15.84C67.7261 19.917 69.5555 25.389 69.4166 31.671C69.0491 47.7945 55.9375 53.766 45.4025 58.5675C33.9692 63.7785 28.5833 67.023 28.5833 74.25C28.5833 77.4225 32.5115 81.972 38.1465 83.43C47.0685 85.7295 58.2936 85.275 63.5775 83.529C74.9005 79.7985 77.7344 70.434 77.8446 70.0335L77.8569 70.038C81.6544 56.835 81.6666 40.5 81.6666 40.5C81.6666 38.016 83.496 36 85.75 36C88.004 36 89.8333 38.016 89.8333 40.5V58.5C89.8333 58.5 90.1028 66.204 88.641 73.5705Z" fill="#388E3C"/>
<path opacity="0.4" d="M16.8274 78.426C21.4375 88.407 32.4911 91.4805 38.1301 92.943C47.0522 95.2425 58.2528 94.698 63.5611 93.042C87.7957 85.5 89.817 62.298 89.817 62.298C89.7353 65.223 89.4658 69.426 88.6451 73.5705H88.6491C88.641 73.62 88.6246 73.665 88.6165 73.7145C87.9346 77.094 86.8729 80.37 85.2518 82.8045V82.8315C85.2028 82.9035 85.1416 82.9755 85.0926 83.0475C84.9987 83.1825 84.917 83.3355 84.819 83.4615L84.8067 83.439C81.4298 88.209 75.9214 93.555 67.0932 96.471C63.3815 97.6905 57.7179 98.4915 51.4908 98.4915C46.2437 98.4915 40.5924 97.9245 35.3576 96.57C25.8761 94.1265 18.669 86.832 16.8274 78.426ZM45.4026 58.5675C46.7501 57.9555 48.1466 57.3075 49.5431 56.6325C49.8861 56.466 50.2291 56.286 50.5721 56.115C51.6541 55.5795 52.7281 55.0125 53.7979 54.423C60.8212 50.5215 67.2688 45.171 68.9593 35.892C68.9593 35.892 67.2035 46.314 40.6986 55.602C30.7556 59.085 28.5833 64.2195 28.5833 74.25C28.5833 67.023 33.9692 63.7785 45.4026 58.5675ZM58.016 22.5945C54.8024 17.8695 47.481 14.5485 39.1306 20.2455C40.082 22.0455 40.6618 24.093 40.768 26.298C42.1196 24.9525 45.0146 22.626 49 22.626C50.9396 22.626 53.6264 23.319 55.3536 25.272C56.6317 26.721 57.2279 28.701 57.1666 31.329C57.1054 34.002 56.1172 36.0765 54.3451 37.9665C54.3042 38.0475 54.2267 38.1825 54.194 38.25C54.194 38.25 57.6403 35.181 58.9143 30.672C59.3798 29.0115 59.8657 25.308 58.016 22.5945Z" fill="white"/>
</svg>
