<svg width="98" height="108" viewBox="0 0 98 108" fill="none" xmlns="http://www.w3.org/2000/svg">
<path d="M89.8333 36V72C89.8333 73.7055 88.9595 75.2625 87.5752 76.0275C86.9995 76.3425 86.3706 76.5 85.75 76.5C84.8843 76.5 84.0186 76.1985 83.2999 75.6L69.7596 64.4085L77.5833 99L29.6041 81.324C15.5697 76.6395 8.16663 54 8.16663 54C8.16663 54 15.5697 32.04 29.6041 26.8335L77.6609 9L69.7923 43.5645L83.2999 32.4C84.5372 31.3785 86.191 31.212 87.5752 31.9725C88.9595 32.7375 89.8333 34.2945 89.8333 36Z" fill="#FF8F00"/>
<path opacity="0.4" d="M69.7841 43.56L77.665 9L49 19.62V24.93L66.1091 22.77L58.9633 54.27L66.0642 85.275L49 83.115V88.4745L77.5833 99L69.7433 64.395L69.7841 43.56ZM32.6666 82.44L42.875 86.22V82.35L32.6666 81.045V82.44ZM32.6666 27L42.875 25.695V21.915L32.6666 25.695V27Z" fill="white"/>
<path opacity="0.3" d="M22.4583 51.75C22.4583 54.234 20.629 56.25 18.375 56.25C16.121 56.25 14.2916 54.234 14.2916 51.75C14.2916 49.266 16.121 47.25 18.375 47.25C20.629 47.25 22.4583 49.266 22.4583 51.75ZM32.6666 27V25.695L29.6041 26.8335C28.5425 27.225 27.5257 27.7245 26.5416 28.2915V79.9605C27.5257 80.5005 28.5425 80.9685 29.6041 81.324L32.6666 82.4535V82.44V81.045V27ZM49 83.115V24.93V19.6335L42.875 21.906V21.915V25.695V82.35V86.2155L49 88.47V83.115ZM69.7841 43.614L69.7433 64.3365L69.7596 64.4085L77.5833 70.875V37.125L69.7923 43.5645L69.7841 43.614Z" fill="black"/>
</svg>
