<svg width="96" height="108" viewBox="0 0 96 108" fill="none" xmlns="http://www.w3.org/2000/svg">
<path d="M88 63C82.136 63 76.288 60.876 72 57.753V72H64V69.75L58 63H40V72H32V54.126C26.816 54.5085 19.336 56.124 16.46 62.784C16.168 64.3095 16 65.88 16 67.5H8C8 50.5845 19.92 36.783 34.804 36.0675C34.804 36.0675 35.684 36 36 36H60C64.38 36 68.172 38.6685 70.268 42.6105L70.276 42.57C74.304 50.256 80 55.116 88 58.5V63Z" fill="#BDBDBD"/>
<path opacity="0.3" d="M88 58.5V63C82.136 63 76.288 60.8715 72 57.7485V72H64V69.75L58 63H40L52 36H60C64.38 36 68.172 38.6685 70.268 42.6105L70.276 42.57C74.3 50.2515 80 55.116 88 58.5Z" fill="black"/>
<path opacity="0.4" d="M40 63L32 54C32 54 44 49.5 36 36H52L40 63Z" fill="black"/>
</svg>
