<svg width="105" height="97" viewBox="0 0 105 97" fill="none" xmlns="http://www.w3.org/2000/svg">
<path d="M82.1012 50.1935C82.8493 50.925 83.5624 51.6929 84.1705 52.5336L84.1793 52.5417C86.2749 55.4315 87.5043 58.9033 87.5043 62.6458C87.5043 72.6894 78.6887 80.8334 67.8168 80.8334C63.7699 80.8334 60.0118 79.6976 56.8837 77.7657L56.8749 77.7698L56.8574 77.7536C55.943 77.1878 55.1118 76.5249 54.3155 75.8298L50.8418 79.0267L57.0149 84.7578L52.3643 89.0379L41.5624 79.0025L49.7918 71.4405L40.7749 63.3855C39.8999 62.5771 39.1168 61.692 38.4168 60.7463L28.4418 69.9613V84.875H21.8749V67.4514L35.5993 54.7727C35.2405 53.4066 34.9999 51.992 34.9999 50.5208C34.9999 50.1652 35.0918 49.8338 35.1137 49.4821C34.628 49.086 34.1862 48.6617 33.7705 48.209C32.7337 48.3464 31.7012 48.5 30.6249 48.5C18.563 48.5 8.7499 39.4345 8.7499 28.2917H15.3124C15.3124 36.0921 22.1812 42.4375 30.6249 42.4375C30.6993 42.4375 30.7693 42.4173 30.8437 42.4173C30.7255 41.7625 30.6249 41.1038 30.6249 40.4167V32.5799L8.61865 12.2462L13.2562 7.96208L35.2668 28.2917H43.7499C44.4937 28.2917 45.2068 28.3846 45.9155 28.4938C45.9155 28.425 45.9374 28.3604 45.9374 28.2917C45.9374 20.4913 39.0687 14.1458 30.6249 14.1458V8.08333C42.6868 8.08333 52.4999 17.1488 52.4999 28.2917C52.4999 29.2859 52.3337 30.2398 52.1805 31.1976C52.6749 31.5816 53.1343 31.9938 53.5587 32.4384C53.9436 32.4182 54.3024 32.3333 54.6874 32.3333C56.2799 32.3333 57.8112 32.5556 59.2943 32.887L73.0143 20.2083H91.8749V26.2708H75.7355L65.7605 35.4858C67.2349 36.4154 68.5037 37.5713 69.6543 38.8243L77.3105 46.0508L85.5749 38.3878L96.3899 48.3747L91.7437 52.6629L85.5793 46.9682L82.1012 50.1935Z" fill="#00897B"/>
<path opacity="0.4" d="M50.8419 79.0267L57.015 84.7578L52.3644 89.0379L41.5625 79.0025L49.665 71.5577L53.5631 75.1386C53.8081 75.3771 54.11 75.5589 54.3681 75.7853L50.8419 79.0267ZM85.5706 38.3918L77.4462 45.9255L81.2569 49.4215C81.5456 49.6721 81.8256 49.9267 82.1012 50.1935L85.5794 46.9682L91.7437 52.6629L96.3856 48.3747L85.5706 38.3918ZM73.0144 20.2083L59.29 32.887C61.6306 33.4084 63.8225 34.2733 65.7519 35.4899L75.7269 26.2749H91.875V20.2083H73.0144ZM45.9375 28.2917C45.9375 28.3604 45.9156 28.425 45.9156 28.4937C48.2912 28.8615 50.4219 29.8194 52.1806 31.1976C52.3337 30.2397 52.5 29.2859 52.5 28.2917C52.5 17.1488 42.6869 8.08333 30.625 8.08333V14.1458C39.0687 14.1458 45.9375 20.4912 45.9375 28.2917ZM30.8437 42.4173C30.7694 42.4173 30.6994 42.4375 30.625 42.4375C22.1812 42.4375 15.3125 36.0921 15.3125 28.2917H8.75C8.75 39.4345 18.5631 48.5 30.625 48.5C31.7012 48.5 32.7337 48.3464 33.7706 48.205C32.2787 46.5802 31.2419 44.6119 30.8437 42.4173ZM35.5994 54.7767L21.875 67.4514V84.875H28.4375V69.9653L38.4125 60.7503C37.1 58.9639 36.1637 56.939 35.5994 54.7767ZM83.8294 73.1582C82.5519 74.8153 80.9856 76.2622 79.1875 77.4464L56.875 56.8299L45.3512 67.4756L40.7706 63.3854C40.7269 63.345 40.6919 63.2885 40.6481 63.248L68.4031 37.6077C68.8275 38.0038 69.2562 38.3999 69.65 38.8283L72.9706 41.9606L61.5169 52.5417L83.8294 73.1582Z" fill="black"/>
</svg>
