<svg width="98" height="97" viewBox="0 0 98 97" fill="none" xmlns="http://www.w3.org/2000/svg">
<path d="M87.6691 36.86C86.3665 36.1325 84.7291 36.2133 83.5041 37.0621L77.5833 40.9421L75.5416 42.4779C73.7858 41.6696 71.5808 40.8613 69.4166 40.0529V32.3333C69.4166 30.1104 67.5791 28.2917 65.3333 28.2917C61.0458 28.2917 57.82 29.5042 55.86 31.8483C54.9249 32.8183 54.2675 34.0308 53.8183 35.405C45.6108 33.6267 35.8925 32.3333 24.5 32.3333C16.8233 32.3333 9.18746 37.6683 8.24829 38.315C8.20746 38.3554 8.16663 38.3958 8.16663 38.3958L16.3333 48.5L9.79996 54.9667C13.1075 60.5846 20.4166 60.625 20.4166 60.625H28.5833V64.6667C28.5833 66.2833 29.5633 67.7788 31.115 68.385C31.605 68.6275 32.1358 68.7083 32.6666 68.7083C33.7283 68.7083 34.79 68.3042 35.5658 67.5363L42.5075 60.625H44.9166C47.9383 60.625 50.8783 60.3825 53.7775 59.9783C55.2883 65.4346 59.4125 68.7083 65.3333 68.7083C67.5791 68.7083 69.4166 66.8896 69.4166 64.6667C69.4166 64.6667 69.3758 56.26 69.335 56.0983L75.5416 54.5625L83.5041 59.9379C84.1575 60.3825 84.9741 60.625 85.75 60.625C86.4033 60.625 87.0566 60.4633 87.6691 60.14C89.0166 59.4529 89.8333 58.0788 89.8333 56.5833V40.4167C89.8333 38.9213 89.0166 37.5471 87.6691 36.86Z" fill="#66BB6A"/>
<path opacity="0.2" d="M75.5416 42.4779V48.5H16.3333L8.16663 38.3958C8.16663 38.3958 8.20746 38.3554 8.24829 38.315C9.18746 37.6683 16.8233 32.3333 24.5 32.3333C35.8925 32.3333 45.6108 33.6267 53.8183 35.405C59.8616 36.7387 65.0883 38.3958 69.4166 40.0529C71.5808 40.8612 73.7858 41.6696 75.5416 42.4779Z" fill="black"/>
<path opacity="0.3" d="M25.5209 38.3958C25.5209 40.0691 24.1489 41.4271 22.4584 41.4271C20.7679 41.4271 19.3959 40.0691 19.3959 38.3958C19.3959 36.7226 20.7679 35.3646 22.4584 35.3646C24.1489 35.3646 25.5209 36.7226 25.5209 38.3958ZM69.3391 56.1185C69.3595 56.2762 69.4085 56.4217 69.4085 56.5833V64.6667C69.4085 66.9017 67.5833 68.7083 65.3252 68.7083C59.4044 68.7083 55.2843 65.4427 53.7612 59.9743C59.4493 59.1821 64.7454 57.7312 69.3391 56.1185ZM42.5239 60.625L35.5536 67.5241C34.7737 68.2961 33.7284 68.7083 32.6667 68.7083C32.14 68.7083 31.6091 68.6113 31.1028 68.4012C29.5797 67.7788 28.5834 66.2995 28.5834 64.6667V60.625H42.5239ZM89.8334 40.4167V56.5833C89.8334 58.0747 89.0045 59.4448 87.6774 60.1481C87.073 60.4674 86.4115 60.625 85.75 60.625C84.9579 60.625 84.1657 60.3946 83.4838 59.946L75.5417 54.5625V42.4779L83.4838 37.054C84.7374 36.2255 86.3503 36.1487 87.6733 36.8519C89.0045 37.5552 89.8334 38.9253 89.8334 40.4167ZM65.3334 28.2917C59.2084 28.2917 55.3292 30.7571 53.8184 35.405C59.8617 36.7388 65.0884 38.3958 69.4167 40.0529V32.3333C69.4167 30.1104 67.5792 28.2917 65.3334 28.2917Z" fill="black"/>
</svg>
