<svg width="107" height="97" viewBox="0 0 107 97" fill="none" xmlns="http://www.w3.org/2000/svg">
<path d="M71.6231 49.2841L80.25 72.75L54.5744 64.99C48.15 66.057 40.125 69.6096 40.125 80.8333C40.125 80.8333 14.8596 67.8677 8.91663 88.9167V60.625C25.3768 60.625 35.0648 56.0377 40.0982 52.5053L31.2083 40.4167H40.125L44.5833 36.375V28.2917L57.9182 36.3507C61.8147 31.7877 66.875 23.0052 66.875 8.08333H98.0833C74.677 13.1354 89.1666 36.375 89.1666 36.375C76.6967 36.375 72.7733 43.4964 71.6231 49.2841Z" fill="#616161"/>
<path opacity="0.3" d="M71.6232 49.2841L80.25 72.75L54.5745 64.99C48.5379 63.147 43.3573 57.1896 40.0983 52.5053L31.2084 40.4167H40.125L44.5834 36.375V28.2917L57.9182 36.3508C62.5282 38.5979 68.324 42.9427 71.6232 49.2841Z" fill="black"/>
</svg>
