<svg width="98" height="97" viewBox="0 0 98 97" fill="none" xmlns="http://www.w3.org/2000/svg">
<path d="M93.9166 84.875C93.9166 87.11 92.0913 88.9166 89.8333 88.9166H73.4999C71.2418 88.9166 69.4166 87.11 69.4166 84.875C69.4166 79.6127 72.8425 75.1669 77.5833 73.4936V72.75C77.5833 66.0651 72.0871 60.625 65.3333 60.625C59.1511 60.625 53.2262 60.625 53.0833 60.625C47.9913 60.625 42.3441 60.5239 36.7499 59.6671V72.75C30.6576 72.75 24.9246 66.0974 24.5693 56.2074C13.4831 51.1634 4.708 40.3843 4.218 17.367C4.20167 16.688 4.08325 14.5379 4.08325 14.1458C4.08325 10.7993 6.82725 8.08331 10.2083 8.08331C11.2699 8.08331 12.2581 8.37431 13.1278 8.84719C13.4423 9.01694 75.8029 50.1045 75.8029 50.1045C85.8438 56.1913 86.1869 62.8762 85.9174 73.5462C90.5764 75.2679 93.9166 79.6734 93.9166 84.875Z" fill="#0097A7"/>
<path opacity="0.4" d="M64.0593 60.625C57.8771 60.625 53.2262 60.625 53.0833 60.625C47.9914 60.625 42.3441 60.524 36.7499 59.6671C36.7499 59.6671 29.3469 58.3496 24.5694 56.2075C13.5525 51.1958 4.79377 40.8855 4.21802 17.3671L64.0593 60.625Z" fill="white"/>
<path opacity="0.3" d="M24.5693 56.2075C29.3509 58.3536 36.7499 59.6671 36.7499 59.6671V72.75C30.6576 72.75 24.9246 66.0974 24.5693 56.2075ZM5.34909 10.4922C4.56509 11.5107 4.08325 12.7676 4.08325 14.1459C4.08325 14.5379 4.12817 14.9178 4.20167 15.2896C4.20167 15.2937 4.19759 15.2977 4.19759 15.3018C4.19759 15.9848 4.20575 16.7042 4.218 17.3671L22.348 30.3974L25.9781 25.5151L5.34909 10.4922ZM93.9166 84.875C93.9166 87.1101 92.0913 88.9167 89.8333 88.9167H73.4999C71.2418 88.9167 69.4166 87.1101 69.4166 84.875C69.4166 79.6128 72.8425 75.1669 77.5833 73.4937L85.9214 73.5462C90.5764 75.268 93.9166 79.6734 93.9166 84.875Z" fill="black"/>
</svg>
