<svg width="98" height="97" viewBox="0 0 98 97" fill="none" xmlns="http://www.w3.org/2000/svg">
<path d="M83.7083 48.5C83.7492 47.4896 83.7818 40.3682 77.5833 38.6343V72.75H69.4167V62.6458L61.2827 54.6555L40.8333 64.699V72.75H32.6667V64.6667L24.5 56.5833L20.4167 64.6667C20.4167 64.6667 20.4167 64.6667 16.3333 64.6667C13.9732 64.6667 12.25 60.625 12.25 60.625C12.25 60.625 6.125 48.5 6.125 40.4167C6.125 35.9547 9.78367 32.3333 14.2917 32.3333H21.168C22.8544 27.6329 27.342 24.25 32.6667 24.25C33.3363 24.25 33.9815 24.343 34.6226 24.444L77.5833 32.4303C87.7672 34.0712 89.8334 43.3388 89.8293 48.6576L89.8333 52.5417H83.7083V48.5Z" fill="#5D4037"/>
<path opacity="0.4" d="M20.4166 46.4792V40.4167C22.8217 40.4167 24.5 38.7556 24.5 36.375V32.3333H30.625V36.375C30.625 42.1344 26.2354 46.4792 20.4166 46.4792Z" fill="white"/>
<path opacity="0.3" d="M89.8333 48.5V52.5417H83.7083V48.5H89.8333ZM34.6226 24.444C33.9815 24.343 33.3363 24.25 32.6667 24.25C27.342 24.25 22.8544 27.6329 21.168 32.3333H14.2917C9.78367 32.3333 6.125 35.9547 6.125 40.4167H8.12175C13.0503 40.4167 17.4154 42.6153 20.4167 46.0265V40.4167C22.8218 40.4167 24.5 38.7555 24.5 36.375V32.3333H30.625V36.375C30.625 42.0172 26.4069 46.269 20.7678 46.4468C23.0545 49.2275 24.4837 52.7235 24.4959 56.5833H24.5L32.6667 64.6667V72.75H40.8333V52.574C40.8333 52.574 40.9191 43.8561 46.5663 37.3208C49.098 34.3905 57.1789 28.6392 57.1789 28.6392L34.6226 24.444Z" fill="black"/>
</svg>
