<svg width="96" height="97" viewBox="0 0 96 97" fill="none" xmlns="http://www.w3.org/2000/svg">
<path d="M88 38.3797V84.875H80V64.6667L76 56.5833V66.6875C76 67.0189 75.96 67.3503 75.88 67.6737L71.588 84.875H63.336L67.776 67.0876L61.132 52.5417H52V84.875H44V52.5417H39.472L36.42 58.7052L43.652 75.1467L36.344 78.4326L27.576 58.4991L34.884 43.7349C26.884 41.609 21.46 34.4673 20.292 24.347L8 20.2083V12.125H32V20.2083C32 23.8539 32.78 32.3333 40 32.3333L50.124 18.7857L50.168 18.7776C52.644 14.7925 57 12.125 62 12.125C65.476 12.125 68.616 13.4507 71.06 15.5685L85.656 31.9453C87.1 33.6994 88 35.9223 88 38.3797Z" fill="#8D6E63"/>
<path opacity="0.3" d="M36.42 58.7052L43.6521 75.1467L36.3441 78.4326L27.576 58.4991L30.528 52.5417H39.4721L36.42 58.7052ZM74.0001 52.5417H61.1321L67.7761 67.0876L63.3361 84.875H71.5881L75.8801 67.6737C75.9601 67.3503 76.0001 67.0189 76.0001 66.6875V56.5833L74.0001 52.5417Z" fill="black"/>
</svg>
