<svg width="98" height="97" viewBox="0 0 98 97" fill="none" xmlns="http://www.w3.org/2000/svg">
<path d="M40.8333 80.8333H32.6666V68.7083H40.8333V80.8333ZM30.9884 23.6195L8.16663 34.3542L24.5 46.7338L30.9884 23.6195Z" fill="#FBC02D"/>
<path d="M69.7475 58.4385L89.8334 76.7917H73.5L62.9814 66.3803C58.0569 70.3573 51.7685 72.75 44.9167 72.75C29.1305 72.75 16.3334 60.0834 16.3334 44.4583C16.3334 31.6422 24.9451 19.4768 36.75 15.5079V28.2917L69.7475 58.4385Z" fill="#BF360C"/>
<path opacity="0.3" d="M68.0447 56.8864C64.8882 58.8628 61.1765 60.0511 57.1667 60.0511C45.8885 60.0511 36.75 51.0058 36.75 39.8427V28.2917L68.0447 56.8864Z" fill="black"/>
<path opacity="0.5" d="M32.6667 38.3958C32.6667 43.9774 28.0975 48.5 22.4584 48.5C20.2207 48.5 18.1668 47.7685 16.4845 46.56C16.4314 45.8608 16.3334 45.1737 16.3334 44.4583C16.3334 38.7434 18.0729 33.0689 21.0333 28.2998C21.4988 28.2391 21.9765 28.2917 22.4584 28.2917C28.0975 28.2917 32.6667 32.8143 32.6667 38.3958Z" fill="black"/>
</svg>
