<svg width="98" height="108" viewBox="0 0 98 108" fill="none" xmlns="http://www.w3.org/2000/svg">
<path d="M85.75 27V36C81.2461 36 77.5833 40.0365 77.5833 45V81C77.5833 90.927 70.2578 99 61.25 99H24.5V45V40.5H16.3333L12.25 31.5L19.0855 21.582L19.0937 21.6045C20.5147 19.9215 22.3767 18.702 24.5 18.225V9C24.5 9 40.8333 13.5 40.8333 27C40.8333 30.06 40.8701 39.3615 40.8946 45H44.9167C53.9368 45 61.25 53.0595 61.25 63V90C65.7539 90 69.4167 85.9635 69.4167 81V45C69.4167 35.073 76.7422 27 85.75 27Z" fill="#BDBDBD"/>
<path opacity="0.3" d="M69.4167 45V81C69.4167 85.95 65.7417 90 61.2501 90V99C61.3277 99 61.4951 99 61.6584 98.955C62.3118 98.91 63.5817 98.685 65.2967 98.415C72.3568 96.435 77.5834 89.415 77.5834 81V45C77.5834 40.05 81.2584 36 85.7501 36V27C76.7259 27 69.4167 35.055 69.4167 45ZM32.6667 99H40.8334C40.8334 94.05 44.5084 90 49.0001 90V81C39.9759 81 32.6667 89.055 32.6667 99Z" fill="black"/>
</svg>
