<svg width="105" height="108" viewBox="0 0 105 108" fill="none" xmlns="http://www.w3.org/2000/svg">
<path d="M95.4406 18.36L88.1474 28.728C89.3681 32.6655 91.8749 41.724 91.8749 49.5C91.8749 67.59 83.7418 76.0185 69.9999 79.272V85.5C69.9999 87.318 68.9368 88.965 67.3006 89.658C66.7581 89.892 66.1893 90 65.6249 90C64.4874 90 63.3674 89.541 62.5318 88.6815L55.0199 80.955C54.1799 80.973 53.3574 81 52.4999 81H34.9999C32.8343 81 30.6206 80.8155 28.4374 80.46V81C28.4374 88.4385 33.2718 90 37.3318 90H43.7499C49.2406 90 53.8299 93.8205 55.2693 99H48.0112C47.0093 97.668 45.5131 96.75 43.7499 96.75H37.3318C27.9431 96.75 21.8749 90.567 21.8749 81V78.813C15.2818 76.545 10.0143 72.612 9.13494 67.5C8.74994 65.25 14.6299 54 34.9999 54H48.7462C50.7018 46.26 57.4962 40.5 65.6249 40.5V49.5C62.4224 49.5 59.6443 51.3 58.1174 53.9505C65.5156 53.7525 71.8856 52.533 74.3749 45C76.0856 39.8295 77.6431 32.3865 78.3475 28.8045L70.9274 18.522C69.5274 16.6815 69.7287 14.04 71.3912 12.4515C74.5981 9.3915 80.8718 9.0585 83.4224 9.0585C86.4849 9.0585 92.0674 9.522 94.9987 12.6045C96.4862 14.1615 96.6699 16.5825 95.4406 18.36Z" fill="#26A69A"/>
<path opacity="0.3" d="M95.4406 18.36L88.1475 28.728L78.3475 28.809L70.9275 18.5265C69.5275 16.686 69.7288 14.0445 71.3913 12.456C74.5981 9.39599 80.8719 9.06299 83.4225 9.06299C86.485 9.06299 92.0675 9.52649 94.9988 12.609C96.4863 14.1615 96.67 16.5825 95.4406 18.36ZM28.4375 57.375C26.6263 57.375 25.1562 58.887 25.1562 60.75C25.1562 62.613 26.6263 64.125 28.4375 64.125C30.2488 64.125 31.7188 62.613 31.7188 60.75C31.7188 58.887 30.2488 57.375 28.4375 57.375ZM52.5 54C54.4163 54 56.2888 54 58.1175 53.9505C59.6444 51.3 62.4225 49.5 65.625 49.5V40.5C57.4963 40.5 50.7019 46.26 48.7463 54H52.5ZM35 81H43.1463C46.5631 77.1615 47.5781 72.108 47.5781 67.5H41.0156C41.0156 73.476 39.4231 79.5735 28.21 80.352C30.4719 80.7345 32.7556 81 35 81ZM55.02 80.955L62.5319 88.6815C63.3675 89.541 64.4875 90 65.625 90C66.1894 90 66.7581 89.892 67.3006 89.658C68.9369 88.965 70 87.318 70 85.5V79.272C65.5638 80.325 60.5456 80.838 55.02 80.955Z" fill="black"/>
<path opacity="0.5" d="M91.875 49.5C91.875 74.313 76.6238 81 52.5 81H43.1463C46.5631 77.1615 47.5781 72.108 47.5781 67.5H52.5C62.1513 67.5 75.1844 64.206 79.7738 55.476C84.2844 46.899 83.7375 28.8045 83.7375 28.8045H88.1738C89.4031 32.7915 91.875 41.7825 91.875 49.5ZM28.4375 80.3835V80.46C30.6206 80.8155 32.8344 81 35 81C32.83 81 30.625 80.7435 28.4375 80.3835ZM21.875 67.5H9.13501C10.0144 72.612 15.2819 76.545 21.875 78.813V67.5ZM41.0156 67.5H28.4375V80.3205C39.4188 79.47 41.0156 73.431 41.0156 67.5Z" fill="white"/>
</svg>
