<svg width="98" height="108" viewBox="0 0 98 108" fill="none" xmlns="http://www.w3.org/2000/svg">
<path d="M83.2591 74.547C84.7904 76.1805 85.75 78.462 85.75 81C85.75 83.538 84.7904 85.8195 83.2591 87.453C84.3494 90.27 86.8851 92.25 89.8333 92.25V99C84.3249 99 79.5923 95.2785 77.5874 90H77.5833H69.4166C68.7265 90 68.0487 89.946 67.375 89.8875V99H61.25V88.425C58.996 87.543 56.8971 86.3145 55.0025 84.7845L47.0808 93.51L42.7525 88.74L50.5271 80.172C49.6696 79.029 48.9142 77.7915 48.2323 76.5H36.75V69.75H45.721C45.2147 67.59 44.9166 65.3355 44.9166 63H36.75V56.25H44.9166V49.5H36.75V42.75H44.6267C43.712 38.88 40.5434 36 36.75 36H35.672C35.3861 39.7665 32.3359 42.75 28.5833 42.75H20.4166V36H28.5833C25.676 36 23.1402 34.3125 21.6947 31.7925H19.3958C16.5824 31.7925 14.2916 34.317 14.2916 37.4175V45H8.16663V37.4175C8.16663 33.1065 10.1838 29.313 13.2259 27.099C10.1838 24.8805 8.16663 21.0915 8.16663 16.7805V9H14.2916V16.7805C14.2916 19.881 16.5824 22.4055 19.3958 22.4055H21.4375H21.5967C22.7523 20.277 24.6551 18.702 26.9336 18.1845H20.4166V11.4345H28.5833C32.2746 11.4345 35.284 14.3235 35.6556 18H36.75C38.1424 18 39.5021 18.1575 40.8333 18.405V9H46.9583V20.4885C48.6733 21.357 50.278 22.437 51.748 23.7015L59.0858 15.615L63.4141 20.385L56.0805 28.467C57.2279 30.0915 58.2038 31.86 58.996 33.7455H69.4166V40.5H60.8825C61.107 41.967 61.25 43.4655 61.25 45V47.25H69.4166V54H61.25V60.75H69.4166V67.5H62.3851C63.802 70.1775 66.4072 72 69.4166 72H77.5833H77.5874C79.5923 66.7215 84.3208 63 89.8333 63V69.75C86.8851 69.75 84.3494 71.73 83.2591 74.547Z" fill="#BF360C"/>
<path opacity="0.3" d="M21.6947 31.7925H19.3958C16.5824 31.7925 14.2916 34.317 14.2916 37.4175V45H8.16663V37.4175C8.16663 33.1065 10.1838 29.313 13.2259 27.099C10.1838 24.8805 8.16663 21.0915 8.16663 16.7805V9H14.2916V16.7805C14.2916 19.881 16.5824 22.4055 19.3958 22.4055H21.5967C20.8658 23.751 20.4166 25.3125 20.4166 27C20.4166 28.7685 20.8944 30.402 21.6947 31.7925ZM77.5874 72C79.7924 72 81.7891 72.9765 83.255 74.547C84.3494 71.73 86.8851 69.75 89.8333 69.75V63C84.3249 63 79.5923 66.7215 77.5874 72ZM83.2591 87.453C81.7891 89.0235 79.7965 89.9955 77.5915 90C79.5964 95.2785 84.3249 99 89.8374 99V92.25C86.8851 92.25 84.3494 90.27 83.2591 87.453ZM28.5833 36H20.4166V42.75H28.5833C32.3359 42.75 35.3861 39.7665 35.672 36H28.5833ZM28.5833 18H35.6556C35.284 14.3235 32.2746 11.4345 28.5833 11.4345H20.4166V18.1845H26.9336C27.4645 18.063 28.0198 18 28.5833 18ZM46.9583 20.4885V9H40.8333V18.405C42.9852 18.8055 45.035 19.512 46.9583 20.4885ZM61.25 88.425V99H67.375V89.8875C65.2435 89.6895 63.1936 89.1855 61.25 88.425ZM56.0805 28.4715L63.4141 20.385L59.0858 15.615L51.7521 23.697C53.3691 25.083 54.8228 26.685 56.0805 28.4715ZM60.8825 40.5H69.4166V33.75H58.9919C59.878 35.8695 60.519 38.1285 60.8825 40.5ZM61.25 54H69.4166V47.25H61.25V54ZM61.25 63C61.25 64.647 61.6828 66.1725 62.3851 67.5H69.4166V60.75H61.25V63ZM44.9166 45C44.9166 44.217 44.7982 43.4745 44.6267 42.75H36.75V49.5H44.9166V45ZM36.75 56.25V63H44.9166V56.25H36.75ZM45.721 69.75H36.75V76.5H48.2323C47.1298 74.412 46.2845 72.144 45.721 69.75ZM50.523 80.172L42.7525 88.74L47.0849 93.5145L55.0025 84.789C53.3446 83.448 51.8297 81.9135 50.523 80.172Z" fill="black"/>
</svg>
