<svg width="107" height="108" viewBox="0 0 107 108" fill="none" xmlns="http://www.w3.org/2000/svg">
<path d="M98.0833 54C98.0833 81 66.875 81 26.75 81C26.75 81 26.7366 71.9775 35.6667 72C65.9165 72.081 68.8946 63.945 69.1042 61.4745C69.0373 61.0785 68.9793 60.669 68.9258 60.2595L44.5833 54.36V63H31.2083L35.6667 58.5V52.2L24.5208 49.5H13.375L8.91667 45L25.1272 41.7285L6.6875 36V31.5H31.2083C37.1245 31.5 42.3274 32.823 45.5686 36H80.25C90.0985 36 98.0833 44.0595 98.0833 54Z" fill="#2E7D32"/>
<path opacity="0.3" d="M80.25 45V51.75C74.3115 51.75 68.9303 56.673 68.9303 60.2595L62.7466 58.761C64.2758 51.057 71.6499 45 80.25 45Z" fill="black"/>
<path opacity="0.4" d="M35.6666 52.2L24.5208 49.5H13.375L8.91663 45H26.75L35.6666 46.8585V52.2ZM44.5833 48.717V54.36L62.7421 58.761C63.1478 56.7315 63.977 54.828 65.105 53.109C65.1139 53.082 65.1451 53.01 65.1451 53.01L44.5833 48.717ZM98.0833 54C98.0833 54.351 98.0209 54.648 98.0075 54.99C98.0164 54.954 98.0298 54.909 98.0432 54.873C98.0521 54.5805 98.0833 54.3015 98.0833 54ZM97.7846 57.933C97.905 56.9925 97.9763 56.007 98.0075 54.99C96.2732 61.443 87.4457 76.5 49.0416 76.5C43.7451 76.5 27.8556 76.5 27.8556 76.5C26.75 78.75 26.75 81 26.75 81C64.1063 81 93.7007 80.973 97.6107 59.184C97.6865 58.779 97.7266 58.3515 97.7846 57.933Z" fill="white"/>
</svg>
