<svg width="107" height="108" viewBox="0 0 107 108" fill="none" xmlns="http://www.w3.org/2000/svg">
<path d="M69.0239 54.8055C68.9392 56.475 68.6137 58.068 68.0475 59.562C69.7684 58.905 71.6142 58.5 73.5624 58.5C82.1804 58.5 89.1666 65.5515 89.1666 74.25V90H73.5624C64.9445 90 57.9583 82.9485 57.9583 74.25C57.9583 72.2835 58.3595 70.4205 59.0104 68.6835C57.5526 69.2415 55.9922 69.57 54.3604 69.66L48.6983 80.379L64.7795 96.6105L60.0537 101.385L40.4682 81.6165L47.4054 68.49C46.7723 68.2155 46.1927 67.8555 45.6042 67.5045L35.1628 77.3865L43.2324 97.7445L37.0219 100.251L27.2582 75.609L40.5842 63H22.4164L6.58044 47.4165L11.2483 42.5835L25.1405 56.25H38.1232C38.0162 55.5075 37.8958 54.7695 37.8958 54C37.8958 52.0335 38.297 50.175 38.9524 48.438C37.2315 49.095 35.3857 49.5 33.4374 49.5C29.2689 49.5 25.5016 47.826 22.7018 45.135L22.6839 45.1485C22.6839 45.1485 22.6171 45.081 22.5101 44.973C22.4387 44.9055 22.3674 44.829 22.2961 44.757C21.4624 43.8885 19.1842 41.454 15.0022 36.423C9.41594 29.709 8.91661 18 8.91661 18L19.7994 26.2395C21.2484 23.5665 23.4196 21.3885 26.0767 19.9395L17.8333 8.99999C17.8333 8.99999 29.4339 9.54899 36.1347 15.1155C42.6751 20.547 44.5565 22.716 44.5565 22.716C47.3252 25.5555 49.0416 29.448 49.0416 33.75C49.0416 35.7165 48.6404 37.5795 47.9894 39.3165C49.7104 38.655 51.5517 38.25 53.4999 38.25C54.2579 38.25 54.989 38.3715 55.7157 38.475L55.7826 25.29L42.314 11.205L47.1245 6.51599L62.4879 22.5765L62.3943 40.914L74.9579 27.522L99.3227 37.503L96.8082 43.758L76.6744 35.5095L66.8571 45.972C67.2093 46.566 67.566 47.1555 67.8424 47.799L80.8474 40.887L100.33 60.7545L95.5777 65.502L79.5767 49.1895L69.0239 54.8055Z" fill="#BF360C"/>
<path opacity="0.3" d="M35.1628 77.3865L43.2324 97.7445L37.0219 100.251L27.2582 75.609L40.5842 63H22.4164L6.58044 47.4165L11.2483 42.5835L25.1405 56.25H38.1232C38.8142 61.0515 41.6274 65.1285 45.6042 67.5045L35.1628 77.3865ZM54.3604 69.66C54.0706 69.678 53.7942 69.75 53.4999 69.75C51.3377 69.75 49.2779 69.3 47.4009 68.4945L40.4638 81.621L60.0492 101.39L64.7795 96.615L48.6983 80.3835L54.3604 69.66ZM80.8429 40.896L67.8379 47.808C68.6494 49.7115 69.1041 51.7995 69.1041 54C69.1041 54.2745 69.0372 54.5355 69.0239 54.8055L79.5723 49.194L95.5732 65.5065L100.326 60.759L80.8429 40.896ZM96.8037 43.7625L99.3182 37.5075L74.9534 27.5265L62.3899 40.9185L62.4835 22.581L47.1245 6.52051L42.314 11.2095L55.7826 25.2945L55.7157 38.4795C60.4594 39.1725 64.4897 41.994 66.8527 45.9855L76.6699 35.523L96.8037 43.7625ZM22.2961 44.757C19.5408 41.9175 17.8333 38.0385 17.8333 33.75C17.8333 31.014 18.5867 28.4805 19.7994 26.2395L8.91661 18C8.91661 18 9.41594 29.709 15.0022 36.423C19.1842 41.454 21.4624 43.8885 22.2961 44.757ZM22.7018 45.135C22.6438 45.0765 22.568 45.036 22.5101 44.9775C22.6126 45.081 22.6839 45.153 22.6839 45.153L22.7018 45.135ZM33.4374 18C37.7932 18 41.721 19.809 44.5521 22.7115C44.5521 22.7115 42.6707 20.5425 36.1303 15.111C29.4339 9.54901 17.8333 9.00001 17.8333 9.00001L26.0812 19.9395C28.2792 18.7425 30.7624 18 33.4374 18Z" fill="black"/>
</svg>
