<svg width="98" height="108" viewBox="0 0 98 108" fill="none" xmlns="http://www.w3.org/2000/svg">
<path d="M89.8333 63V99H83.7083V82.5165L77.5833 76.5135V99H71.4583V82.5165L65.317 76.5H55.125V99H49V76.5H42.875V99H36.75V75.672C33.8835 74.5515 31.5396 72.3015 30.1064 69.3945C30.1023 69.399 30.0819 69.426 30.0819 69.426L21.6539 52.8255L14.0058 58.0455L13.9935 58.032C13.4586 58.311 12.8788 58.5 12.25 58.5C9.99596 58.5 8.16663 56.484 8.16663 54C8.16663 52.9875 8.52596 52.101 9.03638 51.3495L9.00371 51.3L17.395 36.081L17.4195 36.1035C17.6726 35.6085 17.9625 35.1495 18.2933 34.722C17.8605 32.1075 17.1949 24.795 21.8744 18.6435C24.9736 14.58 26.5416 11.3355 26.5416 9H32.6666C32.6666 14.355 29.1835 19.5435 26.5661 22.9815C24.6265 25.533 24.161 28.512 24.1325 30.744C25.6515 28.224 28.4812 24.543 33.2832 21.762C38.0893 18.981 41.164 17.127 43.1077 9H49.3879C47.0155 20.5335 42.5687 24.0075 36.1334 27.738C32.9157 29.601 30.923 31.9185 29.747 33.6555C30.4861 34.344 31.1027 35.1675 31.5805 36.099L31.605 36.0765C33.4792 39.348 36.411 48.7485 40.8333 49.5H77.5833C84.3494 49.5 89.8333 55.5435 89.8333 63Z" fill="#FFA000"/>
<path opacity="0.5" d="M49.3879 9C47.0155 20.5335 42.5687 24.0075 36.1334 27.738C32.9157 29.601 30.9231 31.9185 29.7471 33.6555C28.3261 32.3325 26.509 31.5 24.5 31.5C24.3734 31.5 24.255 31.527 24.1325 31.5405C21.7846 31.6575 19.7143 32.8635 18.2933 34.7175C17.8605 32.1075 17.1949 24.795 21.8744 18.6435C24.9736 14.58 26.5416 11.3355 26.5416 9H32.6666C32.6666 14.355 29.1836 19.5435 26.5661 22.9815C24.6225 25.5375 24.1774 28.4985 24.1529 30.726C25.6596 28.2105 28.4731 24.552 33.2832 21.762C38.0893 18.981 41.1641 17.127 43.1077 9H49.3879Z" fill="black"/>
<path opacity="0.3" d="M65.317 76.5H77.5833V99H71.4583V82.5165L65.317 76.5ZM40.8333 76.5C39.3919 76.5 38.0322 76.176 36.75 75.672V99H42.875V76.5H40.8333Z" fill="black"/>
<path opacity="0.4" d="M77.5221 76.5H69.4167H61.25H55.125V67.5H68.2693L77.5221 76.5ZM28.8855 47.8935L21.6539 52.83L30.0819 69.4305L30.1064 69.399C31.5397 72.306 33.8835 74.5515 36.75 75.672C38.0322 76.176 39.3919 76.5 40.8333 76.5H42.875H49V67.5H40.8333C37.1543 66.8745 31.6989 54.0765 28.8855 47.8935Z" fill="white"/>
</svg>
