<svg width="98" height="97" viewBox="0 0 98 97" fill="none" xmlns="http://www.w3.org/2000/svg">
<path d="M93.9166 88.9167C77.6976 88.9167 66.2602 83.6302 57.1666 80.0371V88.9167H48.9999V84.8912L40.7353 76.7917H28.5833V88.9167H20.4166V76.4764C10.735 74.5485 4.07917 62.9005 4.08325 44.6968V28.1219C4.08325 20.8995 7.75009 16.5264 12.0784 14.2186V14.1458C12.0784 10.7993 14.8224 8.08333 18.2034 8.08333C20.8903 8.08333 23.1443 9.80508 23.9732 12.1856L24.3284 12.125C26.5824 12.125 28.4118 13.9357 28.4118 16.1667C28.4118 18.3977 26.5824 20.2083 24.3284 20.2083H20.2778C18.3953 20.2366 12.2499 20.8954 12.2499 28.1219V40.6551C12.0784 52.5417 21.662 52.5093 23.3484 52.5417H36.6642C45.6598 52.5417 53.6672 56.6763 58.8898 63.1187C58.9265 63.1632 58.9714 63.1955 59.0082 63.24C74.2676 82.8542 93.9166 84.875 93.9166 84.875V88.9167Z" fill="#2E7D32"/>
<path opacity="0.4" d="M32.5808 68.7083H28.5832V76.7917H40.7352L32.5808 68.7083ZM57.1665 72.75V80.0371C66.2601 83.6302 77.6975 88.9167 93.9165 88.9167C93.9165 88.9167 72.5934 86.4472 57.1665 72.75ZM4.88354 54.9869C6.9293 67.1887 12.7358 74.9487 20.4165 76.4764V68.4497C9.55079 66.5703 5.95338 58.8386 4.88354 54.9869Z" fill="white"/>
</svg>
