<svg width="98" height="97" viewBox="0 0 98 97" fill="none" xmlns="http://www.w3.org/2000/svg">
<path d="M81.6667 56.5833V34.3542C81.6667 31.0117 78.9187 28.2917 75.5417 28.2917C72.7855 28.2917 70.4743 30.1185 69.7067 32.6041C69.7067 32.6041 72.124 33.7196 72.1362 33.7398C75.554 35.4495 77.3547 38.7636 77.5303 43.6823L81.6708 80.8333H73.4552L70.5805 58.1313L65.7009 80.8333H57.3464L63.3489 52.9135L44.9249 59.5095C43.949 59.8531 42.9527 60.136 41.9073 60.3138L49.1757 80.8333H40.519C40.519 80.8333 32.777 59.5499 32.6667 59.5095V80.8333H24.5001V53.7421C21.9847 50.63 20.4167 46.7338 20.4167 42.4375V36.375H14.2917C10.9107 36.375 8.16675 33.659 8.16675 30.3125C8.16675 26.966 10.9107 24.25 14.2917 24.25H16.3334C16.3334 19.784 19.988 16.1667 24.5001 16.1667H32.6667L62.2382 29.29C64.3044 23.9913 69.4698 20.2083 75.5417 20.2083C83.4226 20.2083 89.8334 26.5538 89.8334 34.3542V56.5833H81.6667Z" fill="#616161"/>
<path opacity="0.3" d="M32.6667 59.5095V80.8333H24.5V53.742C27.734 58.099 32.7769 59.5499 32.6667 59.5095ZM70.5804 58.1313L73.4551 80.8333H81.6707L78.0692 48.5L71.6503 50.8361L70.5804 58.1313Z" fill="black"/>
<path opacity="0.6" d="M69.4168 36.375C69.4168 35.1019 69.6699 33.8975 70.0415 32.7496L72.1077 33.6671C72.1077 33.6671 72.1281 33.7196 72.1403 33.7398C75.5581 35.4495 77.3588 38.7636 77.5344 43.6823L77.563 43.6783L78.0285 47.8776C73.0509 46.3377 69.4168 41.807 69.4168 36.375ZM24.5001 16.1667C19.988 16.1667 16.3334 19.784 16.3334 24.25H14.2917C10.9107 24.25 8.16675 26.966 8.16675 30.3125C8.16675 33.659 10.9107 36.375 14.2917 36.375H20.4167C24.9288 36.375 28.5834 32.7577 28.5834 28.2917V16.1667H24.5001Z" fill="#D84315"/>
<path opacity="0.4" d="M24.5001 53.7421C21.9847 50.63 20.4167 46.7338 20.4167 42.4375V36.375C24.9288 36.375 28.5834 32.7577 28.5834 28.2917V16.1667H32.6667L40.8334 19.8284C40.9028 27.2893 41.6501 47.433 33.3568 52.0971C29.5062 54.2594 24.5001 53.7421 24.5001 53.7421Z" fill="white"/>
</svg>
