<svg width="98" height="97" viewBox="0 0 98 97" fill="none" xmlns="http://www.w3.org/2000/svg">
<path d="M89.8333 44.4462V72.75H81.6666V66.3399L77.5833 62.2982V72.75H69.4166V66.3399L63.2549 60.241C59.9841 59.9056 56.4725 59.3478 53.0833 58.6325V72.75H44.9166V68.7164C44.9166 68.2072 44.8268 61.785 42.5605 55.678C41.9521 55.4476 41.3764 55.2172 40.8333 54.9788V72.75H32.6666V68.7164C32.6625 67.7262 32.4053 44.4583 16.3333 44.4583H12.25L8.16663 36.375L16.3333 32.3333C16.3333 32.3333 20.4166 24.25 24.5 24.25C24.602 24.25 24.7531 24.25 24.8756 24.25C25.7168 21.9018 27.9626 20.2083 30.625 20.2083C33.2873 20.2083 35.5331 21.9018 36.3743 24.25C45.0881 24.25 57.236 24.25 69.4166 24.25C80.6866 24.25 89.8251 33.2912 89.8333 44.4462Z" fill="#6D4C41"/>
<path opacity="0.3" d="M40.8334 54.9788V72.75H32.6667V68.7164C32.6626 67.7262 32.4054 44.4583 16.3334 44.4583V44.43C16.3334 44.43 28.5834 44.4583 36.75 52.5417C37.583 53.3662 39.0204 54.1907 40.8334 54.9788ZM75.8643 60.5967C73.206 60.5967 70.707 60.5967 69.4167 60.5967C67.5547 60.5967 65.4559 60.4674 63.255 60.241L69.4167 66.3399V72.75H77.5834V62.2982L75.8643 60.5967Z" fill="black"/>
</svg>
