<svg width="98" height="97" viewBox="0 0 98 97" fill="none" xmlns="http://www.w3.org/2000/svg">
<path d="M89.8333 46.4792C89.8333 55.9043 85.4887 64.3231 78.6695 69.8845C72.0708 76.4603 63.0753 80.8333 53.0833 80.8333C36.8766 80.8333 30.6005 76.3592 25.7454 71.5981C25.7209 71.5739 25.6923 71.5496 25.6678 71.5254C25.6556 71.5133 25.6393 71.5011 25.627 71.485L25.6311 71.4728C24.941 70.7494 24.5 69.7834 24.5 68.7083C24.5 66.4773 26.3293 64.6667 28.5833 64.6667H37.3462C34.2959 59.5984 32.6667 53.3136 32.6667 46.4792C32.6667 45.784 32.7075 45.105 32.7402 44.422L32.6667 44.4583C20.4167 44.4583 12.25 28.2917 12.25 20.2083C12.25 17.9773 14.0793 16.1667 16.3333 16.1667C16.3333 16.1667 58.4856 16.1667 59.2083 16.1667C75.4518 16.1667 88.7063 28.6918 89.7313 44.5149C89.7313 44.5149 89.8333 46.1235 89.8333 46.4792Z" fill="#8D6E63"/>
<path opacity="0.3" d="M27.5625 26.2708C27.5625 24.5976 28.9345 23.2396 30.625 23.2396C32.3155 23.2396 33.6875 24.5976 33.6875 26.2708C33.6875 27.9441 32.3155 29.3021 30.625 29.3021C28.9345 29.3021 27.5625 27.9441 27.5625 26.2708ZM57.1667 64.6667C57.1953 62.5933 57.9221 52.5417 69.4167 52.5417V44.4583C53.2671 44.4583 49 57.6786 49 64.6667H28.5833C26.3375 64.6667 24.5 66.4854 24.5 68.7083C24.5 69.7956 24.9492 70.7292 25.6433 71.4567V71.5011C25.6433 71.5011 25.6433 71.5011 25.6842 71.5416L25.725 71.582C30.5842 76.3471 36.8725 80.8333 53.0833 80.8333C63.0875 80.8333 72.0708 76.4683 78.6817 69.8804C80.5642 68.3446 82.2343 66.6067 83.7083 64.6667H57.1667ZM16.3333 16.1667C14.0875 16.1667 12.25 17.9854 12.25 20.2083C12.25 21.34 12.4133 22.6333 12.74 24.0075C13.23 24.1692 13.7608 24.25 14.2917 24.25C17.6808 24.25 20.4167 21.5421 20.4167 18.1875C20.4167 17.46 20.2942 16.8133 20.0492 16.1667C17.7625 16.1667 16.3333 16.1667 16.3333 16.1667Z" fill="black"/>
</svg>
