<svg width="107" height="97" viewBox="0 0 107 97" fill="none" xmlns="http://www.w3.org/2000/svg">
<path d="M97.2496 88.1609C97.2496 88.1609 58.3194 80.1099 57.0176 79.7259L56.9329 79.7097L56.9373 79.7017C48.8143 77.2645 42.635 71.0646 40.767 63.3976L39.8842 66.8492C38.7473 72.4954 33.3126 76.7917 26.75 76.7917C19.3625 76.7917 13.375 71.3637 13.375 64.6667C13.375 59.2023 17.3919 54.6352 22.8757 53.1196L42.6216 48.9163C42.7465 48.6819 42.8445 48.4353 42.9783 48.209C42.0554 48.3909 41.1058 48.5 40.125 48.5C34.3113 48.5 27.2136 44.5109 26.8213 36.9974C20.0446 31.2178 14.2131 30.3125 8.91663 30.3125V24.25C14.5876 24.25 21.2216 25.1351 28.569 30.3731C29.4874 28.9222 30.709 27.6612 32.1891 26.6669C26.7723 20.9197 26.75 12.7272 26.75 8.24499L33.4375 8.08333V8.24499C33.4375 14.2792 33.9502 20.855 39.2378 24.3308C39.5365 24.3147 39.8218 24.25 40.125 24.25C47.5124 24.25 53.5 29.678 53.5 36.375C53.5 37.2642 53.3796 38.125 53.179 38.9617C53.4331 38.8404 53.705 38.7515 53.9592 38.6383L58.6003 20.7216C60.2766 15.7585 65.3101 12.125 71.3333 12.125C78.7208 12.125 84.7083 17.553 84.7083 24.25C84.7083 29.8962 80.4328 34.5967 74.6726 35.9466L69.9111 36.953C78.8902 38.7474 86.0324 44.9555 88.3463 52.9822L97.2496 88.1609Z" fill="#FBC02D"/>
<path opacity="0.5" d="M80.25 84.6325L93.353 72.754L95.1185 79.7259L87.945 86.2289C85.591 85.7439 82.9606 85.1943 80.25 84.6325ZM69.813 82.454L90.9544 63.2885L89.1889 56.3166L62.1402 80.8374C64.2802 81.2941 66.9106 81.8478 69.813 82.454ZM52.5682 77.8789L85.8808 47.6795C84.7573 45.8891 83.3931 44.2562 81.7881 42.8174L47.187 74.1848C48.7741 75.6357 50.5976 76.8604 52.5682 77.8789ZM39.2377 24.3308C33.9502 20.855 33.4375 14.2832 33.4375 8.24499V8.08333L26.75 8.24499C26.75 12.7312 26.7722 20.9197 32.1891 26.6669C34.1865 25.321 36.6029 24.4925 39.2377 24.3308ZM26.75 36.375C26.75 34.1804 27.4455 32.1474 28.569 30.3731C21.2216 25.1351 14.5876 24.25 8.91663 24.25V30.3125C14.2131 30.3125 20.0446 31.2178 26.8213 36.9974C26.8124 36.7832 26.75 36.5973 26.75 36.375Z" fill="black"/>
<path opacity="0.4" d="M39.8843 66.8411C38.7474 72.4954 33.3127 76.7917 26.75 76.7917C19.3625 76.7917 13.375 71.3637 13.375 64.6667C13.375 59.2023 17.392 54.6353 22.8757 53.1196L44.5833 48.5L39.8843 66.8411ZM84.7083 24.25C84.7083 17.553 78.7208 12.125 71.3333 12.125C65.3101 12.125 60.2767 15.7585 58.6003 20.7216L53.5 40.4167L74.6726 35.9466C80.4328 34.5967 84.7083 29.8962 84.7083 24.25Z" fill="white"/>
</svg>
