<svg width="105" height="97" viewBox="0 0 105 97" fill="none" xmlns="http://www.w3.org/2000/svg">
<path d="M96.25 55.6497V60.625H89.6875V55.6214C89.7138 52.8367 87.2812 50.5491 84.2712 50.5208H83.125V72.75H74.375V66.6875L62.6194 57.4482L43.75 60.625L39.375 65.1597V72.75H30.625V57.5937L8.75 52.5821V44.4583C10.4737 44.4583 21.875 42.199 21.875 32.3333L35 28.2917L72.4194 36.6013C77.0437 37.4016 80.7756 40.4449 82.32 44.4583H84.3281C90.9519 44.5149 96.2894 49.5306 96.25 55.6497Z" fill="#6D4C41"/>
<path opacity="0.3" d="M96.2501 55.6497V60.625H89.6876V55.6214C89.7138 52.8367 87.2813 50.5491 84.2713 50.5208C84.2713 50.5208 83.1251 50.7836 83.1251 50.5208C83.1251 46.3094 82.3201 44.4583 82.3201 44.4583H84.3282C90.9519 44.5149 96.2894 49.5306 96.2501 55.6497Z" fill="black"/>
<path opacity="0.4" d="M17.5 50.4602V44.3977C19.8625 44.3977 21.7831 42.6234 21.7831 40.4409H28.3456C28.3456 45.9659 23.4806 50.4602 17.5 50.4602Z" fill="white"/>
</svg>
