<svg width="98" height="97" viewBox="0 0 98 97" fill="none" xmlns="http://www.w3.org/2000/svg">
<path d="M44.6758 63.3814C43.7081 63.8179 42.6954 64.1696 41.6256 64.3838L49.0532 84.875H40.3761L32.5075 63.1672C28.5997 61.2596 25.6761 57.6827 24.7859 53.3379L20.4167 36.375H8.16675V24.25H12.4542C13.4016 19.6385 17.5176 16.1667 22.4584 16.1667C25.7496 16.1667 28.6447 17.7349 30.5107 20.1275L40.9763 36.5933C41.5072 36.6741 73.9207 44.7696 73.9207 44.7696C73.9207 44.7696 75.4397 45.2707 76.142 45.6345L83.5859 38.2746L87.9183 42.5628L80.4785 49.9267C81.2135 51.3171 81.6667 52.8812 81.6667 54.5625V69.9289L89.8212 84.875H80.5397L65.1374 56.648L44.6758 63.3814Z" fill="#6D4C41"/>
<path opacity="0.3" d="M20.4167 36.375H8.16675V24.25H12.4542L20.4167 36.375Z" fill="black"/>
<path opacity="0.4" d="M32.5075 63.1672C28.5997 61.2596 25.6761 57.6827 24.7859 53.3379L20.4167 36.375C20.4167 36.375 30.5107 36.375 30.5107 20.1275L30.5842 20.0831L40.9763 36.5933C41.5112 36.6741 32.5075 63.1672 32.5075 63.1672ZM34.5165 68.7084L40.3761 84.875H49.0532L43.1936 68.7084H34.5165ZM76.1297 76.7917L80.5398 84.875H89.8212L85.4112 76.7917H76.1297Z" fill="white"/>
</svg>
