<svg width="98" height="97" viewBox="0 0 98 97" fill="none" xmlns="http://www.w3.org/2000/svg">
<path d="M87.024 35.3969C88.7961 37.9836 89.8333 41.0997 89.8333 44.4584V80.8334H81.6666V68.8256L73.5 60.625C73.4428 60.625 44.9166 60.625 44.9166 60.625V80.8334H36.75V69.1368L26.0761 54.3402C25.1043 52.5983 24.5 50.63 24.5 48.5H18.375C12.7359 48.5 8.16663 43.9774 8.16663 38.3959C8.16663 33.5014 11.6865 29.4234 16.3537 28.4938C16.3537 28.4251 16.3333 28.3604 16.3333 28.2917C16.3333 21.5946 24.5 16.1667 32.6666 16.1667C37.583 16.1667 42.4707 18.1552 45.6026 21.1824L53.0833 28.2917H73.5C74.9863 28.2917 76.3951 28.5504 77.763 28.9181C78.4 26.2466 80.8132 24.25 83.7083 24.25C87.0893 24.25 89.8333 26.966 89.8333 30.3125C89.8333 32.4465 88.7104 34.3178 87.024 35.3969Z" fill="#6D4C41"/>
<path opacity="0.3" d="M40.8334 18.0582V22.2292C40.8334 25.5757 38.0894 28.2917 34.7084 28.2917C31.3274 28.2917 28.5834 25.5757 28.5834 22.2292V16.6315C29.9186 16.3364 31.2906 16.1667 32.6667 16.1667C35.5291 16.1667 38.3344 16.8982 40.8334 18.0582Z" fill="black"/>
<path opacity="0.4" d="M73.4305 60.625H44.9166V80.8333H36.75V69.1367L26.0761 54.3402C25.1043 52.5982 24.5 50.6299 24.5 48.5H19.2692C16.4599 48.5 15.5697 48.0635 15.5697 48.0635C11.3026 46.851 8.16663 43.0074 8.16663 38.3958C8.16663 33.8166 11.2659 29.9972 15.484 28.7605C15.7739 28.6716 16.0515 28.5544 16.3537 28.4937C16.3537 28.425 16.3333 28.3604 16.3333 28.2916C16.3333 22.7263 21.9887 18.0864 28.5833 16.6597V22.2291C28.5833 25.5756 31.3273 28.2916 34.7083 28.2916C38.0893 28.2916 40.8333 25.5756 40.8333 22.2291V44.4583C40.8333 48.9244 44.4879 52.5416 49 52.5416H65.3129L73.4305 60.625Z" fill="white"/>
</svg>
