<svg width="107" height="97" viewBox="0 0 107 97" fill="none" xmlns="http://www.w3.org/2000/svg">
<path d="M86.572 54.5019L94.004 80.8334H84.7886L81.3067 68.7084H53.5V80.8334H44.5834V68.7084L32.0644 60.1966C26.8927 65.9439 19.2779 70.7292 13.375 70.7292V51.313V51.1958L4.45837 48.5V44.4584H23.5891L39.4429 33.8288C40.8963 32.8951 42.6663 32.3334 44.5834 32.3334C45.8406 32.3334 47.031 32.5759 48.1144 33.0002L83.1301 48.5H85.7516C88.3553 48.5 91.3959 47.4411 91.3959 44.4584C91.3959 41.4756 88.3553 40.4167 85.7516 40.4167C78.8055 40.4167 73.5625 35.2029 73.5625 28.2917V16.1667H78.0209L84.7084 28.2917H80.25C80.25 31.8039 82.5684 34.3542 85.7516 34.3542C92.8983 34.3542 98.0834 38.602 98.0834 44.4584C98.0834 50.0803 93.2773 54.1826 86.572 54.5019Z" fill="#424242"/>
<path opacity="0.3" d="M73.5625 16.1667H78.0208L84.7083 28.2917H73.5625V16.1667Z" fill="black"/>
<path opacity="0.4" d="M22.2917 48.5C22.2917 50.731 20.2944 52.5417 17.8334 52.5417L4.45837 48.5V44.4583H17.8334C20.2944 44.4583 22.2917 46.269 22.2917 48.5Z" fill="white"/>
</svg>
