<svg width="98" height="97" viewBox="0 0 98 97" fill="none" xmlns="http://www.w3.org/2000/svg">
<path d="M89.8333 50.5208C89.8333 56.1024 85.264 60.625 79.625 60.625C79.2248 60.625 77.5016 60.3825 77.2485 60.3219L66.1295 58.2525C71.8217 64.9132 74.827 70.0097 72.6465 72.0184C70.4865 74.011 65.4599 71.1171 58.898 65.6003L61.0458 76.7916C61.1805 77.4464 61.25 78.1214 61.25 78.8125C61.25 84.394 56.6807 88.9166 51.0416 88.9166C45.4025 88.9166 40.8333 84.394 40.8333 78.8125C40.8333 77.6646 41.0701 76.5774 41.4254 75.5468L45.4189 63.3693C45.4189 63.3693 35.8026 72.2367 35.5862 72.4307L34.6307 73.2107C31.8377 75.4175 28.3505 76.7916 24.5 76.7916C15.4799 76.7916 8.16663 69.553 8.16663 60.625C8.16663 51.6969 15.4799 44.4583 24.5 44.4583H37.0235C28.1831 35.0614 22.5849 27.5359 25.3534 24.9815C28.1137 22.4353 35.5535 27.8673 44.9166 36.573V24.25C44.9166 15.3219 52.2299 8.08331 61.25 8.08331C70.27 8.08331 77.5833 15.3219 77.5833 24.25C77.5833 28.9302 75.5457 33.1093 72.3362 36.0597L60.6824 46.0548C60.6824 46.0548 76.8605 40.7642 77.5833 40.6187H77.5874C77.5874 40.6187 78.9308 40.4166 79.629 40.4166C85.264 40.4166 89.8333 44.9393 89.8333 50.5208Z" fill="#F9A825"/>
<path opacity="0.3" d="M53.0833 44.4584C66.1418 57.4483 76.1746 68.7649 72.6466 72.0185C69.1186 75.272 57.9752 65.5316 44.9167 52.5417C31.8582 39.5518 21.8254 28.2351 25.3534 24.9816C28.8814 21.728 40.0248 31.4684 53.0833 44.4584Z" fill="black"/>
</svg>
