<svg width="107" height="97" viewBox="0 0 107 97" fill="none" xmlns="http://www.w3.org/2000/svg">
<path d="M98.0833 28.2917V52.5417C98.0833 54.122 97.0668 55.5527 95.4885 56.2115C94.8911 56.4621 94.258 56.5834 93.625 56.5834C92.5817 56.5834 91.5474 56.2519 90.727 55.6093L80.25 47.4694V54.5625C80.25 60.1441 75.2611 64.6667 69.1041 64.6667H66.875V76.7917C66.875 78.2629 65.9922 79.6209 64.5655 80.3322C63.8968 80.6676 63.1567 80.8334 62.4166 80.8334C61.5874 80.8334 60.7626 80.6232 60.0359 80.2109L38.8588 68.0859C37.5436 67.3302 36.808 66.0287 36.808 64.6667H35.6666C32.3764 64.6667 29.532 63.0298 27.9849 60.625H8.91663V52.5417H13.375C22.2916 52.5417 25.7067 51.6566 31.2083 36.375C33.1165 31.0724 35.5017 17.9046 57.9583 16.3243V16.1667H69.1041C75.2611 16.1667 80.25 20.6893 80.25 26.2709V33.364L90.727 25.2241C92.0467 24.1975 93.9058 23.959 95.4885 24.6219C97.0668 25.2806 98.0833 26.7114 98.0833 28.2917Z" fill="#EF6C00"/>
<path opacity="0.4" d="M71.3333 16.3849V64.4404C70.6111 64.5737 69.871 64.6667 69.1042 64.6667H66.875V70.7292H43.4777L38.8588 68.0859C37.5436 67.3301 36.808 66.0287 36.808 64.6667H51.2708V17.262C53.2771 16.8295 55.4839 16.5021 57.9583 16.3284V64.6667H64.6458V16.1667H69.1042C69.871 16.1667 70.6111 16.2516 71.3333 16.3849ZM86.9375 28.1664L80.25 33.364V47.4694L86.9375 52.667V28.1664Z" fill="white"/>
<path opacity="0.3" d="M41.2396 46.4791C41.2396 48.1524 39.7416 49.5104 37.8959 49.5104C36.0501 49.5104 34.5521 48.1524 34.5521 46.4791C34.5521 44.8059 36.0501 43.4479 37.8959 43.4479C39.7416 43.4479 41.2396 44.8059 41.2396 46.4791ZM93.625 56.5833C94.2581 56.5833 94.8912 56.4621 95.4886 56.2115C97.0669 55.5527 98.0834 54.1219 98.0834 52.5416V28.2916C98.0834 26.7114 97.0669 25.2806 95.4886 24.6178C93.9059 23.9549 92.0468 24.1934 90.7271 25.22L86.9375 28.1664V52.6669L90.7271 55.6093C91.5475 56.2519 92.5818 56.5833 93.625 56.5833Z" fill="black"/>
</svg>
