<svg width="98" height="108" viewBox="0 0 98 108" fill="none" xmlns="http://www.w3.org/2000/svg">
<path d="M89.8334 83.25C89.8334 86.976 87.0894 90 83.7084 90C80.3274 90 77.5834 86.976 77.5834 83.25C77.5834 82.8315 77.5385 73.917 65.3007 72.2835C65.1129 80.964 57.1667 81 57.1667 81V72H49.0001C49.0001 81 40.8334 81 40.8334 81V71.766C39.2368 71.5905 37.6362 71.2935 36.0518 70.8615C33.4834 76.482 24.5001 76.5 24.5001 76.5L28.6038 67.4595C26.5499 66.0465 24.643 64.233 22.9729 61.938C19.7471 63.18 16.3334 63 16.3334 63L20.2657 57.2265C19.2081 54.945 18.3138 52.371 17.6646 49.392C15.9659 49.6035 14.1162 49.653 12.2501 49.5L16.7132 42.9435C16.6356 42.1245 16.5335 41.346 16.4845 40.482C16.4314 40.4865 16.3865 40.5 16.3334 40.5C11.8213 40.5 8.16675 36.4725 8.16675 31.5C8.16675 28.6335 9.404 26.1135 11.2946 24.4665L16.3334 20.2995C18.0443 18.8775 20.1513 18 22.4584 18C26.0722 18 29.2286 20.0835 31.0416 23.202C31.0416 23.202 34.9657 31.167 36.3662 35.37C39.8616 45.837 41.7317 49.5 49.0001 49.5H61.2501C81.7933 49.5 89.8334 63 89.8334 83.25Z" fill="#9CCC65"/>
<path opacity="0.4" d="M83.7083 90C80.3273 90 77.5833 86.976 77.5833 83.25C77.5833 82.7865 77.5833 72 61.25 72H44.9166C32.5646 72 17.9911 66.3615 16.4844 40.482C16.4313 40.4865 24.5 40.5 24.5 40.5C29.2856 58.923 41.7316 58.5 49 58.5H57.1666C89.8333 58.5 83.7083 90 83.7083 90Z" fill="white"/>
<path opacity="0.3" d="M44.9167 72H49C49 81 40.8333 81 40.8333 81V71.766C42.2053 71.919 43.5773 72 44.9167 72ZM61.25 72H57.1667V81C57.1667 81 65.1128 80.964 65.3007 72.2835C64.0634 72.117 62.7486 72 61.25 72ZM28.6037 67.4595L24.5 76.5C24.5 76.5 33.4833 76.482 36.0518 70.8615C33.467 70.1505 30.9394 69.066 28.6037 67.4595ZM20.2656 57.2265L16.3333 63C16.3333 63 19.747 63.18 22.9728 61.938C21.9724 60.5565 21.0741 58.9725 20.2656 57.2265ZM16.7131 42.9435L12.25 49.5C14.1161 49.653 15.9658 49.6035 17.6645 49.3875C17.2317 47.421 16.9336 45.243 16.7131 42.9435Z" fill="black"/>
</svg>
